<svg width="32" height="32" viewBox="0 0 32 32" fill="none" xmlns="http://www.w3.org/2000/svg">
  <rect width="32" height="32" rx="8" fill="url(#paint0_linear)"/>
  <path d="M16 6C12.4101 6 9.5 8.91015 9.5 12.5V15.5C9.5 15.7761 9.27614 16 9 16C8.72386 16 8.5 15.7761 8.5 15.5V12.5C8.5 8.35786 11.8579 5 16 5C20.1421 5 23.5 8.35786 23.5 12.5V15.5C23.5 15.7761 23.2761 16 23 16C22.7239 16 22.5 15.7761 22.5 15.5V12.5C22.5 8.91015 19.5899 6 16 6Z" fill="white"/>
  <path d="M9 17C8.44772 17 8 17.4477 8 18V24C8 25.6569 9.34315 27 11 27H21C22.6569 27 24 25.6569 24 24V18C24 17.4477 23.5523 17 23 17H9Z" fill="white"/>
  <path d="M16 20C15.4477 20 15 20.4477 15 21V23C15 23.5523 15.4477 24 16 24C16.5523 24 17 23.5523 17 23V21C17 20.4477 16.5523 20 16 20Z" fill="url(#paint1_linear)"/>
  <defs>
    <linearGradient id="paint0_linear" x1="0" y1="0" x2="32" y2="32" gradientUnits="userSpaceOnUse">
      <stop stop-color="#5D5FEF"/>
      <stop offset="1" stop-color="#8C5CF6"/>
    </linearGradient>
    <linearGradient id="paint1_linear" x1="15" y1="20" x2="17" y2="24" gradientUnits="userSpaceOnUse">
      <stop stop-color="#5D5FEF"/>
      <stop offset="1" stop-color="#8C5CF6"/>
    </linearGradient>
  </defs>
</svg> 